<svg height='100px' width='100px'  fill="#000000" xmlns="http://www.w3.org/2000/svg" xmlns:xlink="http://www.w3.org/1999/xlink" version="1.1" x="0px" y="0px" viewBox="0 0 66 66" enable-background="new 0 0 66 66" xml:space="preserve"><g><g><path d="M49,44.4c-0.4-0.4-1-0.4-1.4,0l-0.9,0.9l-1.6-1.6l6.6-6.6c0.2-0.2,0.3-0.4,0.3-0.7c0-0.3-0.1-0.5-0.3-0.7    c-4.2-4.2-10.9-4.4-15.3-0.7l-2.2-2.2l3.1-3.1c0.4-0.4,0.4-1,0-1.4L31.1,22l2.1-2.1l2.7,2.7c0.4,0.4,1,0.4,1.4,0l3.8-3.8l-8.2-8.2    L29,14.4c-0.4,0.4-0.4,1,0,1.4l2.7,2.7l-2.1,2.1l-6.3-6.3c-0.4-0.4-1-0.4-1.4,0l-1.3,1.3l-2.1-2.1c-0.4-0.4-1-0.4-1.4,0l-3.7,3.7    c-0.2,0.2-0.3,0.4-0.3,0.7c0,0.3,0.1,0.5,0.3,0.7l2.1,2.1l-1.3,1.3c-0.4,0.4-0.4,1,0,1.4l6.3,6.3l-2.1,2.1L15.8,29    c-0.4-0.4-1-0.4-1.4,0l-3.7,3.8l8.2,8.2l3.7-3.8c0.4-0.4,0.4-1,0-1.4l-2.7-2.7l2.1-2.1l6.3,6.3c0.4,0.4,1,0.4,1.4,0l3.1-3.1    l2.1,2.2c-3.7,4.5-3.5,11.1,0.7,15.3c0.2,0.2,0.5,0.3,0.7,0.3c0.3,0,0.5-0.1,0.7-0.3l6.6-6.6l1.6,1.6l-0.9,0.9    c-0.4,0.4-0.4,1,0,1.4c0.4,0.4,1,0.4,1.4,0l3.2-3.2C49.4,45.4,49.4,44.8,49,44.4z"></path></g><g><rect x="6.1" y="37.7" transform="matrix(-0.7071 -0.7071 0.7071 -0.7071 -7.6648 76.169)" width="11.6" height="3.9"></rect></g><g><path d="M1.3,42.1c-0.4,0.4-0.4,1,0,1.4l6.8,6.8c0.2,0.2,0.4,0.3,0.7,0.3c0.3,0,0.5-0.1,0.7-0.3l3.8-3.8L5,38.3L1.3,42.1z"></path></g><g><rect x="33.9" y="10" transform="matrix(0.7071 0.7071 -0.7071 0.7071 20.0656 -24.5548)" width="11.6" height="3.9"></rect></g><g><path d="M50.3,9.5c0.4-0.4,0.4-1,0-1.4l-6.8-6.8c-0.4-0.4-1-0.4-1.4,0L38.3,5l8.2,8.2L50.3,9.5z"></path></g><g><path d="M64,46.8c-0.6,0-1,0.4-1,1C63,56.2,56.2,63,47.8,63c-0.6,0-1,0.4-1,1s0.4,1,1,1C57.3,65,65,57.3,65,47.8    C65,47.2,64.6,46.8,64,46.8z"></path></g><g><path d="M46.8,58.3c0,0.6,0.4,1,1,1c6.4,0,11.5-5.2,11.5-11.5c0-0.6-0.4-1-1-1c-0.6,0-1,0.4-1,1c0,5.3-4.3,9.5-9.5,9.5    C47.2,57.3,46.8,57.8,46.8,58.3z"></path></g><g><path d="M51.6,47.8c0,2.1-1.7,3.9-3.9,3.9c-0.6,0-1,0.4-1,1c0,0.6,0.4,1,1,1c3.2,0,5.9-2.6,5.9-5.9c0-0.6-0.4-1-1-1    C52.1,46.8,51.6,47.2,51.6,47.8z"></path></g></g></svg>